<svg xmlns="http://www.w3.org/2000/svg" width="24" height="24" viewBox="6 6 12 12">
	<path fill="none" d="M0 0h24v24H0V0z"/>
	<path d="M8.88 9.94l.53.53c.29.29.77.29 1.06 0 .29-.29.29-.77 0-1.06l-.88-.88c-.39-.39-1.02-.39-1.41 0l-.89.88c-.29.29-.29.77 0 1.06.29.29.77.29 1.06 0l.53-.53zM12 17.5c2.03 0 3.8-1.11 4.75-2.75.19-.33-.05-.75-.44-.75H7.69c-.38 0-.63.42-.44.75.95 1.64 2.72 2.75 4.75 2.75zm1.53-7.03c.29.29.77.29 1.06 0l.53-.53.53.53c.29.29.77.29 1.06 0 .29-.29.29-.77 0-1.06l-.88-.88c-.39-.39-1.02-.39-1.41 0l-.88.88c-.3.29-.3.77-.01 1.06z"/>
</svg>